<svg xmlns="http://www.w3.org/2000/svg" xmlns:xlink="http://www.w3.org/1999/xlink" viewBox="0 0 41 50"><path d="M 4.46 3.018 C 4.763 3.22 5.05 3.425 5.332 3.624 C 5.992 4.096 6.613 4.537 7.293 4.859 C 7.703 5.052 8.527 4.92 8.882 4.611 C 15.954 -1.529 25.068 -1.537 32.025 4.589 C 32.38 4.902 33.192 5.056 33.605 4.87 C 34.272 4.572 34.88 4.147 35.53 3.694 C 35.807 3.502 36.091 3.303 36.388 3.109 C 36.313 3.274 36.243 3.435 36.175 3.595 C 36.03 3.932 35.89 4.255 35.707 4.554 C 32.814 9.295 28.697 12.697 23.893 15.324 C 23.595 15.489 23.038 15.401 22.701 15.231 C 21.196 14.476 19.739 14.484 18.235 15.226 C 17.894 15.395 17.339 15.495 17.045 15.333 C 12.176 12.65 7.99 9.203 5.104 4.349 C 4.941 4.079 4.81 3.787 4.673 3.479 C 4.605 3.33 4.536 3.177 4.461 3.02 L 4.461 3.018 Z M 0.002 40.52 L 0.007 40.517 C 3.422 33.435 3.772 25.988 3.572 18.452 C 3.501 15.791 3.961 13.235 5.049 10.803 C 5.197 10.47 5.364 10.145 5.549 9.783 C 5.631 9.621 5.719 9.451 5.809 9.271 C 6.026 9.529 6.242 9.778 6.455 10.027 C 7.114 10.792 7.745 11.525 8.349 12.282 C 8.477 12.446 8.474 12.847 8.366 13.048 C 6.251 16.947 8.925 20.936 13.302 21.237 C 13.431 21.249 13.559 21.272 13.684 21.307 L 13.811 21.337 C 14.217 23.169 13.449 24.2 11.851 24.888 C 11.063 25.227 10.326 25.685 9.535 26.177 C 9.157 26.414 8.778 26.644 8.395 26.87 C 8.735 27.068 9.074 27.27 9.41 27.475 C 10.126 27.907 10.803 28.315 11.516 28.645 C 13.563 29.589 15.007 31.141 15.79 33.171 C 16.831 35.869 17.774 38.606 18.717 41.341 C 19.052 42.312 19.385 43.282 19.723 44.25 C 19.768 44.374 19.808 44.497 19.849 44.622 C 20.037 45.181 20.226 45.746 20.587 46.294 C 20.775 45.667 20.956 45.039 21.138 44.411 C 21.538 43.018 21.938 41.627 22.4 40.256 C 23.145 38.051 23.961 35.87 24.848 33.715 C 25.815 31.374 27.353 29.527 29.732 28.464 C 30.356 28.184 30.945 27.834 31.589 27.454 C 31.913 27.259 32.239 27.069 32.568 26.883 C 32.141 26.633 31.733 26.38 31.334 26.135 C 30.462 25.595 29.636 25.085 28.758 24.703 C 27.19 24.025 26.842 22.901 27.117 21.364 C 27.346 21.314 27.577 21.272 27.809 21.227 C 28.327 21.131 28.847 21.034 29.351 20.874 C 32.658 19.829 34.123 16.755 32.764 13.578 C 32.419 12.767 32.476 12.272 33.091 11.664 C 33.567 11.192 33.985 10.66 34.433 10.087 C 34.637 9.825 34.848 9.557 35.075 9.28 C 36.153 11 36.856 12.814 37.061 14.738 C 37.297 16.928 37.334 19.147 37.329 21.35 C 37.319 25.418 37.459 29.471 38.573 33.401 C 39.039 35.049 39.613 36.662 40.203 38.316 C 40.469 39.063 40.737 39.816 41 40.586 L 38.539 38.602 L 38.443 38.526 L 35.68 36.3 L 32.908 40.776 L 31.593 42.903 C 30.166 41.567 28.74 40.229 27.315 38.891 L 24.696 43.143 L 24.674 43.179 C 23.294 45.421 21.907 47.675 20.473 50 C 19.036 47.67 17.629 45.389 16.215 43.094 L 16.188 43.052 L 13.623 38.893 C 12.714 39.743 11.838 40.565 10.939 41.406 L 10.934 41.411 L 9.344 42.903 L 7.801 40.406 L 7.799 40.405 L 7.774 40.361 C 6.945 39.019 6.119 37.683 5.268 36.302 L 4.008 37.311 C 2.655 38.394 1.329 39.456 0.007 40.517 L 0 40.529 L 0.002 40.519 Z M 26.953 26.875 L 26.958 26.872 L 26.954 26.877 Z M 26.954 26.877 C 26.954 26.875 26.953 26.875 26.953 26.875 Z M 20.685 36.934 L 20.472 37.598 C 20.378 37.313 20.284 37.029 20.192 36.747 L 20.19 36.744 C 18.897 32.795 17.679 29.074 13.724 26.745 C 16.488 26.185 16.628 24.321 16.649 22.258 C 16.662 20.717 17.287 19.314 18.485 18.245 C 19.79 17.078 21.114 17.063 22.416 18.222 C 23.866 19.512 24.452 21.236 24.333 23.073 C 24.22 24.796 24.775 25.877 26.36 26.47 C 26.48 26.514 26.586 26.597 26.721 26.702 C 26.789 26.755 26.866 26.814 26.955 26.877 C 23.2 29.124 21.987 32.89 20.685 36.934 Z M 15.938 17.843 C 14.341 18.759 12.376 18.652 11.223 17.615 C 10.271 16.76 10.186 15.743 10.728 14.551 L 12.764 15.838 L 12.765 15.84 Z M 25.003 17.848 C 25.864 17.3 26.72 16.756 27.586 16.206 L 30.2 14.543 L 30.2 14.546 C 30.726 15.763 30.661 16.775 29.698 17.629 C 28.541 18.65 26.592 18.75 25.003 17.849 Z" fill="rgb(255,255,255)"></path></svg>