<svg xmlns="http://www.w3.org/2000/svg" xmlns:xlink="http://www.w3.org/1999/xlink" viewBox="0 0 675 100"><g><defs><linearGradient id="idss12435202402_1g478772925" x1="0.49748743718592964" x2="0.5025125628140703" y1="1" y2="0"><stop offset="0" stop-color="rgb(190,82,255)" stop-opacity="1"></stop><stop offset="1" stop-color="rgb(109,107,235)" stop-opacity="1"></stop></linearGradient></defs><path d="M 95.496 43.68 C 92.845 46.715 93.063 51.227 95.989 54.015 L 95.961 54.015 C 101.128 58.936 103.753 65.005 103.753 71.048 C 103.753 84.745 92.325 98.305 68.813 98.305 L 7.41 98.305 C 5.444 98.308 3.557 97.529 2.167 96.139 C 0.777 94.749 -0.003 92.862 0 90.896 L 0 41.548 C -0.006 38.199 2.236 35.262 5.468 34.385 L 13.888 32.116 C 18.591 30.859 23.238 34.413 23.238 39.279 L 23.238 70.173 C 23.238 74.273 26.547 77.582 30.648 77.582 L 68.595 77.582 C 75.621 77.582 79.257 72.934 79.257 68.532 C 79.257 64.131 75.757 59.893 68.594 59.893 L 49.894 59.893 C 47.928 59.896 46.042 59.117 44.652 57.726 C 43.261 56.336 42.482 54.45 42.485 52.484 L 42.485 46.688 C 42.485 42.588 45.794 39.279 49.895 39.279 L 66.079 39.279 C 73.106 39.279 76.742 34.631 76.742 30.229 C 76.742 25.829 73.242 21.563 66.079 21.563 L 10.006 21.563 C 5.058 21.563 1.476 16.779 2.926 12.022 L 4.702 6.117 C 5.631 2.979 8.51 0.822 11.783 0.813 L 66.325 0.813 C 89.318 0.813 101.238 15.056 101.238 28.973 C 101.238 34.085 99.324 39.279 95.496 43.681 Z" fill="url(#idss12435202402_1g478772925)"></path></g><g><defs><linearGradient id="idss12435202402_2g478772925" x1="0.49748743718592964" x2="0.5025125628140703" y1="1" y2="0"><stop offset="0" stop-color="rgb(190,82,255)" stop-opacity="1"></stop><stop offset="1" stop-color="rgb(109,107,235)" stop-opacity="1"></stop></linearGradient></defs><path d="M 168.001 100 C 137.627 100 112.42 83.952 112.42 50.406 C 112.42 16.861 137.654 0.813 168.001 0.813 C 198.347 0.813 225.167 15.877 225.167 50.406 C 225.167 84.936 199.332 100 168.001 100 Z M 169.094 79.44 C 190.282 79.44 201.3 70.884 201.3 50.434 C 201.3 29.984 190.282 21.427 169.094 21.427 C 147.906 21.427 136.287 29.382 136.287 50.434 C 136.287 71.485 147.195 79.441 169.094 79.441 Z" fill="url(#idss12435202402_2g478772925)"></path></g><g><defs><linearGradient id="idss12435202402_3g478772925" x1="0.49748743718592964" x2="0.5025125628140703" y1="1" y2="0"><stop offset="0" stop-color="rgb(190,82,255)" stop-opacity="1"></stop><stop offset="1" stop-color="rgb(109,107,235)" stop-opacity="1"></stop></linearGradient></defs><path d="M 285.177 100 C 254.803 100 229.596 83.952 229.596 50.406 C 229.596 16.861 254.83 0.813 285.177 0.813 C 315.524 0.813 342.344 15.877 342.344 50.406 C 342.344 84.936 316.508 100 285.177 100 Z M 286.271 79.44 C 307.459 79.44 318.476 70.884 318.476 50.434 C 318.476 29.984 307.459 21.427 286.271 21.427 C 265.083 21.427 253.463 29.382 253.463 50.434 C 253.463 71.485 264.372 79.441 286.271 79.441 Z" fill="url(#idss12435202402_3g478772925)"></path></g><g><defs><linearGradient id="idss12435202402_4g478772925" x1="0.49748743718592964" x2="0.5025125628140703" y1="1" y2="0"><stop offset="0" stop-color="rgb(190,82,255)" stop-opacity="1"></stop><stop offset="1" stop-color="rgb(109,107,235)" stop-opacity="1"></stop></linearGradient></defs><path d="M 383.845 2.918 C 361.317 2.918 349.807 17.244 349.807 31.816 L 349.835 31.816 C 349.835 46.142 360.962 60.467 383.872 60.467 L 416.68 60.467 C 423.679 60.467 427.096 64.869 427.096 69.271 C 427.096 73.672 423.542 77.719 416.68 77.719 L 360.47 77.719 C 357.781 77.713 355.405 79.467 354.619 82.039 L 352.186 90.049 C 351.01 93.959 353.936 97.922 358.037 97.922 L 416.898 97.922 C 439.672 97.922 450.581 83.842 450.581 69.271 C 450.581 54.699 439.071 40.373 416.898 40.373 L 384.091 40.373 C 377.229 40.373 373.675 36.108 373.675 31.816 C 373.675 27.523 377.12 23.122 384.091 23.122 L 437.84 23.122 C 440.529 23.128 442.905 21.374 443.691 18.802 L 446.124 10.792 C 447.3 6.882 444.374 2.918 440.273 2.918 Z" fill="url(#idss12435202402_4g478772925)"></path></g><g><defs><linearGradient id="idss12435202402_5g478772925" x1="0.49748743718592964" x2="0.5025125628140703" y1="1" y2="0"><stop offset="0" stop-color="rgb(190,82,255)" stop-opacity="1"></stop><stop offset="1" stop-color="rgb(109,107,235)" stop-opacity="1"></stop></linearGradient></defs><path d="M 462.692 2.918 L 547.635 2.918 C 551.736 2.918 554.661 6.882 553.486 10.792 L 551.053 18.802 C 550.267 21.374 547.891 23.128 545.202 23.122 L 520.323 23.122 C 516.958 23.125 514.23 25.853 514.227 29.218 L 514.227 91.826 C 514.224 95.192 511.496 97.919 508.13 97.922 L 497.686 97.922 C 494.321 97.919 491.593 95.191 491.59 91.826 L 491.59 29.218 C 491.587 25.852 488.859 23.125 485.493 23.122 L 462.692 23.122 C 459.326 23.119 456.598 20.391 456.595 17.025 L 456.595 9.015 C 456.598 5.649 459.326 2.921 462.692 2.918 Z" fill="url(#idss12435202402_5g478772925)"></path></g><g><defs><linearGradient id="idss12435202402_6g478772925" x1="0.49748743718592964" x2="0.5025125628140703" y1="1" y2="0"><stop offset="0" stop-color="rgb(190,82,255)" stop-opacity="1"></stop><stop offset="1" stop-color="rgb(109,107,235)" stop-opacity="1"></stop></linearGradient></defs><path d="M 596.409 65.853 L 583.505 65.853 L 583.505 65.908 C 581.067 65.906 578.862 67.358 577.9 69.598 L 574.838 76.734 C 573.116 80.754 576.068 85.237 580.443 85.237 L 611.391 85.237 C 613.752 85.243 615.9 86.604 616.913 88.737 L 619.62 94.477 C 620.633 96.61 622.782 97.972 625.143 97.977 L 635.449 97.977 C 639.933 97.977 642.886 93.274 640.945 89.228 L 600.564 5.078 C 599.284 2.427 596.299 1.06 593.456 1.824 L 578.365 5.898 C 576.674 6.362 575.261 7.526 574.483 9.097 L 534.868 89.147 C 532.872 93.192 535.797 97.949 540.336 97.949 L 550.479 97.949 C 552.857 97.949 555.017 96.555 556.029 94.395 L 581.974 38.295 C 584.133 33.593 590.804 33.565 593.019 38.24 L 601.931 57.132 C 603.845 61.205 600.892 65.853 596.409 65.853 Z" fill="url(#idss12435202402_6g478772925)"></path></g><g><defs><linearGradient id="idss12435202402_7g478772925" x1="0.49748743718592964" x2="0.5025125628140703" y1="1" y2="0"><stop offset="0" stop-color="rgb(190,82,255)" stop-opacity="1"></stop><stop offset="1" stop-color="rgb(109,107,235)" stop-opacity="1"></stop></linearGradient></defs><path d="M 674.599 9.015 L 674.599 91.825 C 674.596 95.191 671.869 97.919 668.503 97.922 L 658.059 97.922 C 654.693 97.919 651.965 95.192 651.962 91.826 L 651.962 9.015 C 651.965 5.649 654.693 2.921 658.059 2.918 L 668.503 2.918 C 671.869 2.921 674.596 5.649 674.599 9.015 Z" fill="url(#idss12435202402_7g478772925)"></path></g></svg>