<svg xmlns="http://www.w3.org/2000/svg" xmlns:xlink="http://www.w3.org/1999/xlink" viewBox="0 0 133 27"><g><defs><linearGradient id="idss1196414120_1g478772745" x1="0.49751243781094523" x2="0.5024875621890548" y1="0" y2="1"><stop offset="0" stop-color="rgb(190,82,255)" stop-opacity="1"></stop><stop offset="1" stop-color="rgb(109,107,235)" stop-opacity="1"></stop></linearGradient></defs><path d="M 17.89 23.929 C 17.333 24.196 16.807 24.529 16.373 24.97 L 15.661 25.695 C 13.951 27.435 11.156 27.435 9.446 25.695 L 8.8 25.038 C 8.355 24.585 7.812 24.245 7.238 23.977 C 2.963 21.977 0 17.623 0 12.573 C 0 5.629 5.602 0 12.513 0 C 19.424 0 25.027 5.629 25.027 12.573 C 25.027 17.583 22.11 21.908 17.89 23.929 Z M 13.596 4.289 C 12.979 3.735 12.048 3.735 11.43 4.289 L 3.943 11.001 C 3.62 11.289 3.425 11.695 3.401 12.129 C 3.376 12.562 3.523 12.988 3.811 13.312 C 4.409 13.987 5.438 14.046 6.109 13.445 L 12.281 7.912 C 12.363 7.838 12.404 7.802 12.451 7.788 C 12.492 7.775 12.535 7.775 12.576 7.788 C 12.623 7.802 12.664 7.838 12.746 7.912 L 18.918 13.445 C 19.589 14.046 20.618 13.987 21.217 13.312 C 21.504 12.988 21.651 12.562 21.626 12.129 C 21.602 11.695 21.407 11.289 21.084 11.001 L 13.597 4.289 Z M 10.836 16.709 C 10.886 16.77 10.886 16.894 10.886 17.142 L 10.886 21.145 C 10.886 22.049 11.614 22.782 12.513 22.782 C 13.412 22.782 14.141 22.049 14.141 21.145 L 14.141 17.142 C 14.141 16.894 14.141 16.77 14.191 16.709 C 14.234 16.656 14.3 16.627 14.368 16.629 C 14.446 16.632 14.538 16.715 14.723 16.879 L 16.56 18.521 C 17.231 19.122 18.26 19.061 18.858 18.385 C 19.144 18.061 19.291 17.635 19.266 17.202 C 19.241 16.768 19.045 16.362 18.722 16.074 L 13.595 11.49 C 12.978 10.939 12.049 10.939 11.432 11.49 L 6.304 16.074 C 5.982 16.362 5.786 16.768 5.761 17.202 C 5.736 17.635 5.882 18.061 6.169 18.385 C 6.767 19.061 7.796 19.122 8.467 18.521 L 10.304 16.88 C 10.488 16.715 10.581 16.632 10.659 16.629 C 10.727 16.627 10.792 16.656 10.836 16.709 Z" fill="url(#idss1196414120_1g478772745)"></path></g><g><defs><linearGradient id="idss1196414120_2g478772925" x1="0.49748743718592964" x2="0.5025125628140703" y1="1" y2="0"><stop offset="0" stop-color="rgb(190,82,255)" stop-opacity="1"></stop><stop offset="1" stop-color="rgb(109,107,235)" stop-opacity="1"></stop></linearGradient></defs><path d="M 45.529 12.682 C 45.129 13.051 45.162 13.6 45.603 13.939 L 45.599 13.939 C 46.38 14.537 46.776 15.275 46.776 16.01 C 46.776 17.675 45.05 19.324 41.499 19.324 L 32.224 19.324 C 31.604 19.324 31.105 18.922 31.105 18.423 L 31.105 12.423 C 31.105 12.014 31.443 11.658 31.931 11.552 L 33.203 11.276 C 33.913 11.123 34.615 11.555 34.615 12.147 L 34.615 15.903 C 34.615 16.402 35.115 16.804 35.734 16.804 L 41.466 16.804 C 42.527 16.804 43.076 16.239 43.076 15.704 C 43.076 15.169 42.548 14.653 41.466 14.653 L 38.641 14.653 C 38.022 14.653 37.522 14.251 37.522 13.753 L 37.522 13.048 C 37.522 12.549 38.022 12.147 38.641 12.147 L 41.086 12.147 C 42.147 12.147 42.696 11.582 42.696 11.047 C 42.696 10.512 42.168 9.993 41.086 9.993 L 32.616 9.993 C 31.869 9.993 31.328 9.411 31.547 8.833 L 31.815 8.115 C 31.956 7.733 32.393 7.47 32.885 7.47 L 41.123 7.47 C 44.596 7.47 46.396 9.202 46.396 10.894 C 46.396 11.515 46.107 12.147 45.529 12.682 Z" fill="url(#idss1196414120_2g478772925)"></path></g><g><defs><linearGradient id="idss1196414120_3g478772925" x1="0.49748743718592964" x2="0.5025125628140703" y1="1" y2="0"><stop offset="0" stop-color="rgb(190,82,255)" stop-opacity="1"></stop><stop offset="1" stop-color="rgb(109,107,235)" stop-opacity="1"></stop></linearGradient></defs><path d="M 56.481 19.53 C 51.893 19.53 48.085 17.579 48.085 13.5 C 48.085 9.421 51.897 7.47 56.481 7.47 C 61.064 7.47 65.115 9.302 65.115 13.5 C 65.115 17.698 61.213 19.53 56.481 19.53 Z M 56.646 17.03 C 59.846 17.03 61.51 15.99 61.51 13.503 C 61.51 11.017 59.846 9.976 56.646 9.976 C 53.445 9.976 51.69 10.944 51.69 13.503 C 51.69 16.063 53.338 17.03 56.646 17.03 Z" fill="url(#idss1196414120_3g478772925)"></path></g><g><defs><linearGradient id="idss1196414120_4g478772925" x1="0.49748743718592964" x2="0.5025125628140703" y1="1" y2="0"><stop offset="0" stop-color="rgb(190,82,255)" stop-opacity="1"></stop><stop offset="1" stop-color="rgb(109,107,235)" stop-opacity="1"></stop></linearGradient></defs><path d="M 74.179 19.53 C 69.592 19.53 65.784 17.579 65.784 13.5 C 65.784 9.421 69.596 7.47 74.179 7.47 C 78.763 7.47 82.814 9.302 82.814 13.5 C 82.814 17.698 78.912 19.53 74.179 19.53 Z M 74.345 17.03 C 77.545 17.03 79.209 15.99 79.209 13.503 C 79.209 11.017 77.545 9.976 74.345 9.976 C 71.144 9.976 69.389 10.944 69.389 13.503 C 69.389 16.063 71.037 17.03 74.345 17.03 Z" fill="url(#idss1196414120_4g478772925)"></path></g><g><defs><linearGradient id="idss1196414120_5g478772925" x1="0.49748743718592964" x2="0.5025125628140703" y1="1" y2="0"><stop offset="0" stop-color="rgb(190,82,255)" stop-opacity="1"></stop><stop offset="1" stop-color="rgb(109,107,235)" stop-opacity="1"></stop></linearGradient></defs><path d="M 89.083 7.726 C 85.68 7.726 83.942 9.468 83.942 11.24 L 83.946 11.24 C 83.946 12.981 85.626 14.723 89.087 14.723 L 94.042 14.723 C 95.099 14.723 95.616 15.258 95.616 15.794 C 95.616 16.329 95.079 16.821 94.042 16.821 L 85.552 16.821 C 85.143 16.821 84.788 17.034 84.668 17.346 L 84.301 18.32 C 84.123 18.795 84.565 19.277 85.185 19.277 L 94.076 19.277 C 97.515 19.277 99.163 17.565 99.163 15.794 C 99.163 14.022 97.424 12.28 94.076 12.28 L 89.12 12.28 C 88.084 12.28 87.547 11.762 87.547 11.24 C 87.547 10.718 88.067 10.183 89.12 10.183 L 97.239 10.183 C 97.647 10.183 98.003 9.97 98.122 9.657 L 98.49 8.683 C 98.667 8.208 98.226 7.726 97.606 7.726 Z" fill="url(#idss1196414120_5g478772925)"></path></g><g><defs><linearGradient id="idss1196414120_6g478772925" x1="0.49748743718592964" x2="0.5025125628140703" y1="1" y2="0"><stop offset="0" stop-color="rgb(190,82,255)" stop-opacity="1"></stop><stop offset="1" stop-color="rgb(109,107,235)" stop-opacity="1"></stop></linearGradient></defs><path d="M 100.992 7.726 L 113.823 7.726 C 114.442 7.726 114.884 8.208 114.706 8.683 L 114.339 9.657 C 114.219 9.97 113.864 10.182 113.455 10.182 L 109.697 10.182 C 109.189 10.182 108.776 10.515 108.776 10.924 L 108.776 18.536 C 108.776 18.945 108.363 19.277 107.855 19.277 L 106.278 19.277 C 105.77 19.277 105.357 18.945 105.357 18.536 L 105.357 10.924 C 105.357 10.515 104.944 10.182 104.436 10.182 L 100.992 10.182 C 100.484 10.182 100.071 9.85 100.071 9.441 L 100.071 8.467 C 100.071 8.058 100.484 7.726 100.992 7.726 Z" fill="url(#idss1196414120_6g478772925)"></path></g><g><defs><linearGradient id="idss1196414120_7g478772925" x1="0.49748743718592964" x2="0.5025125628140703" y1="1" y2="0"><stop offset="0" stop-color="rgb(190,82,255)" stop-opacity="1"></stop><stop offset="1" stop-color="rgb(109,107,235)" stop-opacity="1"></stop></linearGradient></defs><path d="M 121.19 15.378 L 119.241 15.378 L 119.241 15.385 C 118.873 15.385 118.539 15.561 118.394 15.834 L 117.931 16.701 C 117.671 17.19 118.117 17.735 118.778 17.735 L 123.453 17.735 C 123.808 17.735 124.134 17.901 124.287 18.16 L 124.696 18.859 C 124.848 19.118 125.175 19.284 125.53 19.284 L 127.087 19.284 C 127.764 19.284 128.21 18.712 127.917 18.22 L 121.817 7.989 C 121.623 7.666 121.173 7.5 120.744 7.593 L 118.464 8.088 C 118.208 8.145 117.994 8.288 117.878 8.477 L 111.894 18.21 C 111.593 18.702 112.035 19.281 112.72 19.281 L 114.252 19.281 C 114.611 19.281 114.938 19.111 115.09 18.849 L 119.009 12.027 C 119.336 11.456 120.343 11.452 120.678 12.021 L 122.024 14.318 C 122.313 14.813 121.867 15.378 121.19 15.378 Z" fill="url(#idss1196414120_7g478772925)"></path></g><g><defs><linearGradient id="idss1196414120_8g478772925" x1="0.49748743718592964" x2="0.5025125628140703" y1="1" y2="0"><stop offset="0" stop-color="rgb(190,82,255)" stop-opacity="1"></stop><stop offset="1" stop-color="rgb(109,107,235)" stop-opacity="1"></stop></linearGradient></defs><path d="M 133 8.467 L 133 18.536 C 133 18.945 132.587 19.277 132.079 19.277 L 130.502 19.277 C 129.994 19.277 129.581 18.945 129.581 18.536 L 129.581 8.467 C 129.581 8.058 129.994 7.726 130.502 7.726 L 132.079 7.726 C 132.587 7.726 133 8.058 133 8.467 Z" fill="url(#idss1196414120_8g478772925)"></path></g></svg>