<svg xmlns="http://www.w3.org/2000/svg" xmlns:xlink="http://www.w3.org/1999/xlink" viewBox="0 0 50 50"><path d="M 10.554 22.95 C 10.447 23.208 10.392 23.485 10.392 23.765 L 10.392 37.035 C 10.391 37.934 9.717 38.69 8.824 38.793 C 7.834 38.909 7.001 38.993 6.332 39.051 C 5.109 39.16 3.933 38.55 3.319 37.487 C -2.033 28.153 -0.828 16.445 6.312 8.396 C 8.621 5.794 11.448 3.702 14.612 2.256 C 24.387 -2.212 35.926 0.085 43.245 7.956 C 45.617 10.504 47.431 13.52 48.572 16.809 C 48.959 17.94 48.756 19.189 48.03 20.139 C 45.564 23.359 42.457 26.036 39.39 28.263 L 39.39 13.15 C 39.388 11.979 38.44 11.029 37.269 11.025 L 33.732 11.025 C 33.169 11.025 32.628 11.249 32.23 11.648 C 31.832 12.047 31.609 12.588 31.611 13.151 L 31.611 31.501 C 31.61 32.213 31.184 32.856 30.529 33.134 C 29.667 33.499 28.781 33.858 28.781 33.858 L 28.781 18.465 C 28.78 17.293 27.831 16.342 26.659 16.339 L 23.123 16.339 C 22.559 16.338 22.018 16.562 21.62 16.961 C 21.221 17.361 20.998 17.902 21 18.466 L 21 35.05 C 21 35.871 20.436 36.584 19.637 36.774 C 19.079 36.905 18.568 37.031 18.171 37.149 L 18.171 23.78 C 18.17 22.608 17.221 21.657 16.049 21.654 L 12.519 21.643 C 11.659 21.639 10.881 22.156 10.553 22.951 Z M 23.043 49.922 C 18.446 49.557 14.04 47.926 10.314 45.21 L 10.315 45.208 C 23.948 43.266 40.805 36.888 49.935 23.248 C 49.973 23.815 50 24.385 50 24.961 C 50.001 29.578 48.728 34.107 46.319 38.046 C 43.912 41.983 40.463 45.176 36.353 47.274 C 32.246 49.369 27.639 50.286 23.043 49.922 Z" fill="rgb(255,255,255)"></path></svg>