<svg xmlns="http://www.w3.org/2000/svg" xmlns:xlink="http://www.w3.org/1999/xlink" viewBox="0 0 49 50"><path d="M 42.533 29.755 C 41.667 30.285 40.657 30.382 39.887 29.948 C 38.925 29.369 38.347 28.067 38.347 26.283 L 38.347 20.833 C 38.347 18.229 37.337 16.348 35.605 15.866 C 32.67 14.998 30.456 18.615 29.639 19.965 L 24.442 28.308 L 24.442 18.036 C 24.394 15.673 23.624 14.275 22.181 13.841 C 21.218 13.551 19.775 13.696 18.38 15.818 L 6.784 34.433 C 5.244 31.491 4.427 28.212 4.427 24.884 C 4.427 13.648 13.424 4.533 24.442 4.533 C 35.46 4.533 44.458 13.648 44.458 24.884 L 44.458 24.98 C 44.554 27.151 43.88 28.887 42.533 29.755 Z M 48.884 24.884 L 48.884 24.788 C 48.836 11.14 37.866 0 24.442 0 C 10.97 0 0 11.14 0 24.884 C 0 38.58 10.97 49.768 24.442 49.768 C 30.649 49.768 36.519 47.405 41.042 43.113 C 41.956 42.245 42.004 40.846 41.138 39.93 C 40.32 39.014 38.925 38.966 38.01 39.786 L 37.962 39.834 C 34.306 43.306 29.398 45.283 24.346 45.283 C 18.428 45.283 13.135 42.679 9.479 38.532 L 19.919 21.749 L 19.919 29.514 C 19.919 33.227 21.363 34.433 22.566 34.77 C 23.769 35.108 25.597 34.867 27.57 31.732 L 33.295 22.425 C 33.488 22.135 33.632 21.846 33.824 21.653 L 33.824 26.379 C 33.824 29.851 35.22 32.648 37.626 33.999 C 39.791 35.252 42.533 35.108 44.795 33.709 C 47.585 31.877 49.077 28.694 48.884 24.884 Z" fill="rgb(255,255,255)"></path></svg>