<svg xmlns="http://www.w3.org/2000/svg" xmlns:xlink="http://www.w3.org/1999/xlink" viewBox="0 0 43 50"><path d="M 15.994 2.81 C 13.052 4.358 10.635 5.664 10.644 5.719 C 10.644 5.858 17.714 9.465 17.962 9.456 C 18.072 9.456 18.898 9.065 19.8 8.602 L 21.435 7.76 L 23.22 8.687 L 25.003 9.613 L 27.927 8.287 C 32.321 6.294 32.78 6.071 32.706 6.008 C 32.614 5.906 31.032 5.052 26.75 2.781 C 25.258 1.993 23.772 1.196 22.291 0.388 C 21.904 0.167 21.537 0 21.473 0 C 21.409 0 18.936 1.262 15.995 2.81 Z M 3.079 9.558 L 0.01 11.152 L 0.01 18.16 C 0.01 22.015 0.047 25.167 0.102 25.167 C 0.146 25.167 1.656 24.51 3.456 23.704 L 6.72 22.238 L 6.72 14.85 L 8.309 15.721 C 9.542 16.398 10.763 17.065 11.995 17.742 L 14.092 18.882 L 15.021 18.455 C 15.603 18.189 16.185 17.92 16.766 17.65 C 17.217 17.436 18.32 16.936 19.221 16.536 C 20.122 16.138 20.949 15.73 21.068 15.638 C 21.225 15.517 19.313 14.451 14 11.698 C 9.991 9.621 6.581 7.934 6.424 7.944 C 6.268 7.954 4.761 8.677 3.079 9.557 Z M 33.249 10.002 C 31.162 10.958 29.451 11.773 29.451 11.819 C 29.451 11.865 30.59 12.552 31.98 13.338 C 33.378 14.127 34.508 14.813 34.508 14.869 C 34.508 14.925 33.276 15.527 31.767 16.204 C 30.26 16.89 26.455 18.623 23.302 20.06 L 12.759 24.871 C 10.103 26.077 7.713 27.169 7.445 27.29 C 2.031 29.765 0.533 30.452 0.33 30.571 C 0.129 30.692 0.082 31.379 0.047 34.837 L 0 38.962 L 2.738 40.371 L 5.478 41.779 L 9.284 40.046 C 11.371 39.09 13.089 38.265 13.089 38.202 C 13.089 38.137 12.704 37.887 12.235 37.635 C 11.766 37.385 10.791 36.829 10.066 36.402 C 9.348 35.977 8.631 35.587 8.475 35.531 C 8.318 35.475 8.19 35.392 8.19 35.327 C 8.19 35.271 9.863 34.465 11.913 33.548 C 15.884 31.758 18.918 30.377 25.434 27.402 C 28.349 26.077 31.263 24.74 34.185 23.415 C 36.394 22.411 38.6 21.401 40.803 20.385 L 42.762 19.475 L 42.808 15.304 L 42.853 11.133 L 40.078 9.706 C 38.551 8.917 37.238 8.269 37.173 8.269 C 37.099 8.269 35.334 9.056 33.249 10.002 Z M 42.027 25.056 C 41.612 25.259 40.803 25.64 40.225 25.9 C 39.408 26.267 38.593 26.638 37.779 27.012 L 36.392 27.652 L 36.364 31.313 C 36.347 33.325 36.272 34.965 36.198 34.956 C 36.034 34.929 33.432 33.585 30.811 32.165 C 28.919 31.146 28.798 31.1 28.358 31.323 C 28.1 31.452 26.566 32.148 24.948 32.862 C 23.329 33.585 21.951 34.215 21.887 34.279 C 21.822 34.335 25.077 36.115 29.131 38.238 L 36.484 42.094 L 39.626 40.454 C 41.356 39.554 42.826 38.729 42.891 38.627 C 43.047 38.396 43.03 24.658 42.881 24.677 C 42.816 24.685 42.431 24.852 42.027 25.056 Z M 24.617 41.177 C 24.07 41.411 23.524 41.648 22.979 41.89 C 21.336 42.604 21.656 42.633 19.698 41.65 C 18.395 40.991 17.833 40.796 17.585 40.888 C 17.402 40.964 15.83 41.677 14.082 42.475 C 12.345 43.271 10.856 43.929 10.783 43.929 C 10.046 43.929 11.27 44.662 15.957 47.044 L 21.455 49.844 L 23.771 48.694 C 25.04 48.063 27.614 46.794 29.471 45.877 C 31.335 44.958 32.835 44.188 32.807 44.152 C 32.78 44.125 31.216 43.317 29.332 42.354 L 25.913 40.612 Z" fill="rgb(255,255,255)"></path></svg>