<svg xmlns="http://www.w3.org/2000/svg" xmlns:xlink="http://www.w3.org/1999/xlink" viewBox="0 0 44 50"><path d="M 16.768 20.361 C 16.299 19.742 6.953 8.402 0.886 1.108 C 0.694 0.868 0.513 0.646 0.366 0.466 C 0.135 0.183 -0.015 0 0.001 0 C 0.079 0 17.029 18.454 18.252 19.845 L 18.591 20.206 L 18.565 20.799 C 18.539 21.598 18.278 22.139 17.679 22.68 C 17.002 23.325 16.143 23.66 14.816 23.84 C 14.008 23.943 13.722 24.072 13.384 24.433 C 13.071 24.768 12.941 25.206 12.863 26.289 C 12.733 27.99 12.524 28.686 11.717 30.361 C 10.936 31.985 10.78 32.577 10.91 33.454 C 11.066 34.485 11.665 35.258 13.071 36.211 C 14.139 36.933 14.633 37.397 14.894 37.964 C 15.05 38.325 15.076 38.454 15.076 39.046 C 15.076 39.974 14.92 40.335 14.295 41.005 C 13.279 42.088 11.431 42.964 9.192 43.479 C 8.255 43.686 8.202 43.686 8.202 43.479 C 8.202 43.222 7.838 42.526 7.239 41.598 C 6.536 40.541 6.25 40 5.989 39.175 C 5.703 38.247 5.599 37.629 5.651 36.649 C 5.703 35.722 5.807 35.309 6.172 34.588 C 6.458 33.995 6.64 33.737 7.812 32.294 C 9.817 29.845 10.52 28.402 10.78 26.366 C 11.014 24.536 11.327 23.66 12.03 22.887 C 12.446 22.423 12.55 22.242 12.55 21.907 C 12.55 21.753 11.9 20.49 9.895 16.959 C 6.718 11.34 6.718 11.34 6.823 11.392 C 6.849 11.418 8.333 13.66 10.077 16.366 C 12.368 19.897 13.384 21.366 13.618 21.598 C 13.956 21.933 14.451 22.139 14.868 22.139 C 15.232 22.139 15.987 21.933 16.352 21.727 C 17.002 21.366 17.159 20.876 16.768 20.361 Z M 8.541 36.34 C 9.009 36.649 9.166 37.268 8.879 37.758 C 8.619 38.222 8.124 38.376 7.76 38.093 C 7.525 37.912 7.525 37.655 7.708 37.371 C 7.89 37.088 7.864 36.959 7.629 36.83 C 7.473 36.778 7.421 36.675 7.421 36.572 C 7.421 36.186 8.098 36.057 8.541 36.34 Z" fill="rgb(255,255,255)"></path><path d="M 36.581 14.639 C 36.633 13.66 36.763 13.015 37.05 12.423 C 37.154 12.191 37.258 11.985 37.284 11.985 C 37.31 11.985 37.258 12.165 37.18 12.371 C 36.971 12.938 36.945 13.737 37.076 14.639 C 37.258 15.799 37.336 15.954 38.586 17.216 C 39.158 17.809 39.835 18.557 40.096 18.866 L 40.538 19.433 L 40.096 19.021 C 39.549 18.505 38.299 17.526 38.013 17.397 C 37.831 17.294 37.805 17.294 37.674 17.423 C 37.57 17.526 37.544 17.68 37.544 18.428 C 37.518 19.588 37.362 20.309 36.971 21.057 C 36.763 21.443 36.737 21.366 36.919 20.928 C 37.05 20.593 37.076 20.438 37.076 19.33 C 37.076 17.088 36.815 16.546 35.227 15.644 C 34.837 15.412 34.16 15.077 33.769 14.897 C 33.353 14.716 33.04 14.562 33.066 14.562 C 33.118 14.51 34.654 14.948 35.253 15.206 C 36.164 15.567 36.321 15.593 36.425 15.567 C 36.503 15.49 36.555 15.284 36.581 14.639 Z M 16.612 12.938 C 16.455 14.665 17.158 16.985 18.252 18.479 C 19.111 19.639 20.439 20.541 21.428 20.644 C 22.079 20.696 22.261 20.49 21.975 20.077 C 21.558 19.51 21.064 18.608 20.934 18.222 C 20.855 17.99 20.673 17.268 20.543 16.649 C 20.1 14.536 19.632 13.686 18.59 13.067 C 18.2 12.835 17.393 12.526 16.924 12.448 L 16.664 12.397 Z M 28.276 22.835 C 28.276 25.851 30.098 27.629 35.253 29.691 C 38.69 31.057 40.096 31.753 41.189 32.68 C 42.1 33.479 42.647 34.51 42.699 35.593 C 42.699 35.799 42.751 35.928 42.777 35.928 C 42.908 35.902 43.428 34.716 43.611 34.072 C 43.819 33.247 43.897 31.675 43.767 30.851 C 43.298 27.99 41.345 25.876 38.195 24.845 C 37.206 24.51 36.112 24.304 34.212 24.021 C 30.957 23.557 29.786 23.196 28.744 22.371 C 28.666 22.311 28.594 22.254 28.531 22.204 C 28.406 22.105 28.319 22.036 28.302 22.036 C 28.302 22.036 28.276 22.397 28.276 22.835 Z M 31.348 29.459 C 31.426 29.665 31.556 30.155 31.608 30.541 C 32.025 32.964 30.749 34.948 28.171 35.747 C 27.911 35.851 26.87 36.057 25.854 36.211 C 23.797 36.572 22.86 36.804 21.949 37.242 C 21.298 37.552 20.491 38.015 20.543 38.067 C 20.569 38.093 20.725 38.041 20.882 37.99 C 22.053 37.577 23.355 37.371 25.308 37.268 C 25.961 37.225 26.688 37.164 27.09 37.13 L 27.091 37.13 L 27.095 37.129 L 27.286 37.113 C 29.031 36.881 30.254 36.366 31.192 35.412 C 31.712 34.871 32.025 34.381 32.285 33.686 C 32.441 33.247 32.467 33.067 32.467 32.294 C 32.467 31.495 32.467 31.34 32.285 30.851 C 32.051 30.206 31.79 29.742 31.452 29.356 L 31.218 29.072 Z" fill="rgb(255,255,255)"></path><path d="M 33.509 30.515 C 33.144 31.83 33.3 33.222 33.977 34.691 C 34.342 35.438 34.68 35.979 36.112 38.041 C 37.31 39.82 37.909 40.876 38.195 41.753 C 38.664 43.17 38.586 44.433 37.961 45.747 C 37.805 46.057 37.7 46.314 37.726 46.314 C 37.753 46.314 37.987 46.211 38.273 46.057 C 40.174 45.052 41.476 43.299 42.048 41.108 C 42.231 40.412 42.309 38.737 42.179 38.041 C 41.97 36.804 41.528 35.799 40.799 34.923 C 39.966 33.918 38.768 33.041 36.659 31.907 C 34.993 31.005 34.342 30.644 34.029 30.438 C 33.873 30.335 33.717 30.258 33.665 30.258 C 33.613 30.258 33.561 30.387 33.509 30.515 Z M 21.064 39.485 C 18.877 39.845 16.508 40.979 14.581 42.577 L 14.034 43.093 L 14.529 43.17 C 17.132 43.557 17.835 43.918 19.658 45.773 C 20.699 46.83 21.064 47.062 21.923 47.294 C 23.199 47.629 24.448 47.036 24.891 45.902 C 25.073 45.387 25.047 44.562 24.839 44.149 C 24.318 43.144 22.782 42.835 22.053 43.557 C 21.454 44.149 21.637 45.077 22.392 45.232 C 22.548 45.258 22.548 45.258 22.34 45.155 C 22.001 45 21.845 44.794 21.845 44.459 C 21.819 43.66 22.73 43.247 23.563 43.608 C 24.188 43.892 24.422 44.253 24.422 44.871 C 24.422 45.825 23.589 46.572 22.626 46.443 C 22.105 46.366 21.48 46.057 21.142 45.67 C 20.309 44.742 20.621 43.222 21.819 42.655 C 22.73 42.216 23.928 42.345 24.865 42.938 C 25.932 43.634 26.401 44.253 27.312 46.34 C 27.625 47.036 27.989 47.784 28.171 48.041 C 29.031 49.33 30.098 49.974 31.348 49.974 C 32.051 49.974 32.571 49.871 33.222 49.536 C 33.691 49.304 34.394 48.84 34.342 48.789 C 34.342 48.768 34.213 48.812 34.043 48.869 L 33.899 48.918 C 32.519 49.433 31.113 49.407 30.306 48.814 C 29.786 48.428 29.369 47.706 29.161 46.778 L 29.15 46.718 L 29.136 46.632 L 29.136 46.631 C 29.086 46.348 28.985 45.769 28.9 45.206 C 28.614 43.428 28.328 42.629 27.703 41.701 C 27.052 40.747 25.802 39.974 24.422 39.613 C 23.563 39.381 22.001 39.33 21.064 39.485 Z" fill="rgb(255,255,255)"></path><path d="M 19.424 24.201 C 18.799 24.381 18.2 25.052 18.018 25.722 C 17.913 26.134 17.966 26.881 18.148 27.113 C 18.434 27.474 18.695 27.577 19.424 27.577 C 20.855 27.577 22.079 26.959 22.209 26.211 C 22.34 25.593 21.793 24.742 21.038 24.356 C 20.647 24.149 19.84 24.072 19.424 24.201 Z M 21.09 25.49 C 21.298 25.18 21.22 24.845 20.829 24.613 C 20.126 24.175 19.059 24.536 19.059 25.206 C 19.059 25.541 19.606 25.902 20.126 25.902 C 20.465 25.902 20.934 25.696 21.09 25.49 Z" fill="rgb(255,255,255)"></path><path d="M 16.872 11.237 C 16.612 11.263 16.638 11.289 17.185 11.366 C 19.189 11.675 20.726 12.448 22.262 13.918 C 22.965 14.588 23.668 15.387 24.787 16.856 C 27.312 20.18 28.406 21.082 30.541 21.778 C 31.79 22.191 33.066 22.371 35.305 22.5 C 37.779 22.629 38.716 22.809 39.601 23.402 C 40.096 23.737 40.46 24.124 40.851 24.716 L 41.085 25.052 L 41.033 24.665 C 40.877 23.222 39.835 21.186 38.508 19.716 L 38.273 19.459 L 38.143 20 C 37.831 21.366 37.18 22.345 36.555 22.345 C 36.268 22.345 35.956 22.165 35.852 21.907 C 35.722 21.572 35.722 21.469 35.93 21.082 C 36.321 20.387 36.399 19.485 36.216 18.273 C 36.164 17.938 36.086 17.603 36.034 17.552 C 35.904 17.397 34.837 16.778 34.16 16.469 C 31.686 15.335 28.718 14.974 25.828 15.438 L 25.151 15.541 L 24.683 15 C 22.886 13.015 21.194 11.881 19.319 11.443 C 18.512 11.263 17.367 11.16 16.872 11.237 Z" fill="rgb(255,255,255)"></path></svg>