<svg xmlns="http://www.w3.org/2000/svg" xmlns:xlink="http://www.w3.org/1999/xlink" viewBox="0 0 50 50"><path d="M 21.706 22.334 C 23.441 22.334 24.847 20.938 24.847 19.213 C 24.847 17.488 23.441 16.089 21.706 16.091 C 19.97 16.091 18.564 17.488 18.564 19.213 C 18.564 20.938 19.97 22.334 21.706 22.334 Z M 31.522 14.756 C 31.469 14.599 31.405 14.447 31.33 14.299 C 31.428 14.461 31.49 14.615 31.521 14.756 Z" fill="rgb(255,255,255)"></path><path d="M 24.87 0 C 11.073 0.062 -0.061 11.226 0 24.94 C 0.062 38.652 11.299 49.716 25.094 49.656 C 38.891 49.594 50.024 38.429 49.964 24.718 C 49.901 11.005 38.667 -0.06 24.87 0 Z M 21.706 23.609 C 19.24 23.609 17.239 21.623 17.239 19.171 C 17.239 16.721 19.239 14.733 21.706 14.733 C 24.171 14.733 26.172 16.721 26.172 19.171 C 26.173 21.623 24.173 23.609 21.706 23.609 Z M 25.268 28.409 L 25.291 28.381 L 25.315 28.354 C 26.59 29.17 28.045 29.459 29.498 29.501 C 30.954 29.539 32.438 29.43 33.896 29.137 C 35.359 28.832 36.79 28.393 38.17 27.824 C 38.946 27.506 39.72 27.158 40.456 26.749 L 40.461 26.746 L 40.47 26.741 C 40.926 26.467 41.375 26.18 41.816 25.881 C 41.911 25.814 42.004 25.743 42.094 25.67 L 42.105 25.682 L 42.143 25.727 C 41.02 26.742 39.683 27.497 38.322 28.163 C 36.944 28.812 35.507 29.332 34.03 29.715 C 32.554 30.094 31.013 30.381 29.454 30.239 C 27.92 30.103 26.303 29.568 25.268 28.409 Z M 36.73 23.609 C 36.727 23.079 37.158 22.647 37.693 22.642 C 38.229 22.641 38.664 23.069 38.667 23.599 C 38.67 24.129 38.239 24.561 37.704 24.566 C 37.168 24.568 36.732 24.139 36.73 23.609 Z M 29.079 47.422 C 28.115 40.704 34.018 34.124 37.347 30.758 C 37.664 30.437 38.054 30.066 38.48 29.66 C 39.068 29.099 39.727 28.473 40.357 27.825 C 44.678 23.809 45.538 19.01 36.694 16.613 C 35.036 16.135 33.318 15.461 31.578 14.779 L 31.52 14.756 C 31.467 14.6 31.403 14.447 31.328 14.299 C 31.127 13.954 30.773 13.555 30.239 13.104 C 29.09 12.112 26.929 12.138 25.065 12.578 C 23.003 12.095 20.97 11.924 19.015 12.389 C 10.463 14.73 9.088 18.876 8.755 23.871 L 8.701 24.519 C 8.279 29.595 7.955 33.478 5.982 37.888 C 3.416 34.209 1.903 29.747 1.882 24.931 C 1.825 12.253 12.121 1.928 24.878 1.871 C 37.636 1.814 48.024 12.045 48.081 24.724 C 48.133 36.048 39.922 45.497 29.079 47.423 Z" fill="rgb(255,255,255)"></path></svg>